<?xml version="1.0" encoding="UTF-8"?>
<svg version="1.1" xmlns="http://www.w3.org/2000/svg" width="264" height="38">
<path d="M0 0 C2.375 0.6875 2.375 0.6875 3.375 1.6875 C3.8388066 5.67852718 4.07968177 9.67960968 4.375 13.6875 C8.335 13.6875 12.295 13.6875 16.375 13.6875 C16.478125 11.74875 16.58125 9.81 16.6875 7.8125 C16.86328125 4.5078125 16.86328125 4.5078125 17.375 1.6875 C20.375 -0.3125 20.375 -0.3125 23 0 C25.375 0.6875 25.375 0.6875 26.375 1.6875 C26.50064659 4.18501162 26.563622 6.65341165 26.578125 9.15234375 C26.58382507 9.90085098 26.58952515 10.64935822 26.59539795 11.42054749 C26.60486035 13.00683167 26.61138684 14.59313562 26.61523438 16.17944336 C26.62494614 18.61151239 26.65595887 21.04273871 26.6875 23.47460938 C26.69402915 25.01301579 26.69927997 26.55142828 26.703125 28.08984375 C26.7154718 28.82009262 26.7278186 29.55034149 26.74053955 30.30271912 C26.73144531 32.35522461 26.73144531 32.35522461 26.375 35.6875 C23.375 37.6875 23.375 37.6875 20.75 37.375 C18.375 36.6875 18.375 36.6875 17.375 35.6875 C17.14072222 33.67155418 16.96163876 31.649026 16.8125 29.625 C16.68681641 27.96791016 16.68681641 27.96791016 16.55859375 26.27734375 C16.49800781 25.42269531 16.43742187 24.56804688 16.375 23.6875 C14.75036158 23.63354522 13.12521459 23.59472805 11.5 23.5625 C10.59507812 23.53929688 9.69015625 23.51609375 8.7578125 23.4921875 C6.18693006 23.44425164 6.18693006 23.44425164 4.375 25.6875 C4.03266415 28.25285222 3.93287032 30.790249 3.81640625 33.375 C3.67074219 34.138125 3.52507812 34.90125 3.375 35.6875 C0.375 37.6875 0.375 37.6875 -2.25 37.375 C-4.625 36.6875 -4.625 36.6875 -5.625 35.6875 C-5.75064659 33.18998838 -5.813622 30.72158835 -5.828125 28.22265625 C-5.83382507 27.47414902 -5.83952515 26.72564178 -5.84539795 25.95445251 C-5.85486035 24.36816833 -5.86138684 22.78186438 -5.86523438 21.19555664 C-5.87494614 18.76348761 -5.90595887 16.33226129 -5.9375 13.90039062 C-5.94402915 12.36198421 -5.94927997 10.82357172 -5.953125 9.28515625 C-5.9654718 8.55490738 -5.9778186 7.82465851 -5.99053955 7.07228088 C-5.98144531 5.01977539 -5.98144531 5.01977539 -5.625 1.6875 C-2.625 -0.3125 -2.625 -0.3125 0 0 Z " fill="#007042" transform="translate(175.625,0.3125)"/>
<path d="M0 0 C2.375 0.6875 2.375 0.6875 3.375 1.6875 C3.60692865 3.20219448 3.78715238 4.72504562 3.9375 6.25 C4.02128906 7.07628906 4.10507813 7.90257812 4.19140625 8.75390625 C4.25199219 9.39199219 4.31257812 10.03007812 4.375 10.6875 C5.365 10.0275 6.355 9.3675 7.375 8.6875 C11.59947761 8.20925725 13.8742678 8.43241001 17.6875 10.375 C21.15622328 13.35971538 22.16865438 15.84646826 22.67578125 20.37109375 C22.70375771 26.94556217 22.25089072 31.49206587 17.6875 36.5625 C14.1014373 38.30707104 11.3507756 38.00303775 7.375 37.6875 C6.385 37.0275 5.395 36.3675 4.375 35.6875 C4.045 36.3475 3.715 37.0075 3.375 37.6875 C-2.25 37.9375 -2.25 37.9375 -5.625 35.6875 C-5.92941916 33.08672648 -6.04517445 30.72766599 -6.0234375 28.125 C-6.02630768 27.37790771 -6.02917786 26.63081543 -6.03213501 25.86108398 C-6.03417747 24.28075401 -6.02863481 22.70039887 -6.01611328 21.12011719 C-6.00006089 18.69669236 -6.01595439 16.27493526 -6.03515625 13.8515625 C-6.03317385 12.31770464 -6.02933023 10.78384782 -6.0234375 9.25 C-6.02951019 8.52288818 -6.03558289 7.79577637 -6.0418396 7.04663086 C-6.01318359 5.00390625 -6.01318359 5.00390625 -5.625 1.6875 C-2.625 -0.3125 -2.625 -0.3125 0 0 Z M4.625 18.25 C2.85043107 21.71040942 3.48220273 23.97895748 4.375 27.6875 C5.035 28.3475 5.695 29.0075 6.375 29.6875 C8.95040213 29.52242354 8.95040213 29.52242354 11.375 28.6875 C12.89991998 25.63766004 12.61062548 23.0451631 12.375 19.6875 C11.20615894 17.68265224 11.20615894 17.68265224 9.375 16.6875 C6.35696207 16.35449212 6.35696207 16.35449212 4.625 18.25 Z " fill="#007042" transform="translate(241.625,0.3125)"/>
<path d="M0 0 C2.3125 0.875 2.3125 0.875 3.3125 2.875 C3.5764592 6.07183914 3.75632184 9.26184013 3.91796875 12.46484375 C4.07605994 16.29626627 4.07605994 16.29626627 5.3125 19.875 C6.9625 19.875 8.6125 19.875 10.3125 19.875 C10.33828125 18.68261719 10.3640625 17.49023438 10.390625 16.26171875 C10.44690439 14.6952758 10.50425177 13.12887097 10.5625 11.5625 C10.58376953 10.38397461 10.58376953 10.38397461 10.60546875 9.18164062 C10.85208553 3.38614621 10.85208553 3.38614621 13.19140625 0.7890625 C15.3125 -0.125 15.3125 -0.125 18 0.5625 C20.3125 1.875 20.3125 1.875 21.3125 3.875 C21.57922816 7.51503111 21.54403718 11.16378599 21.5625 14.8125 C21.583125 15.82763672 21.60375 16.84277344 21.625 17.88867188 C21.63015625 18.86255859 21.6353125 19.83644531 21.640625 20.83984375 C21.65464355 22.17970337 21.65464355 22.17970337 21.66894531 23.54663086 C21.3125 25.875 21.3125 25.875 20.02246094 27.67797852 C17.27355827 29.60228888 14.55546965 29.05856432 11.3125 28.875 C10.9825 28.215 10.6525 27.555 10.3125 26.875 C9.3225 27.535 8.3325 28.195 7.3125 28.875 C0.34022355 29.6621925 0.34022355 29.6621925 -3.625 26.625 C-7.09222 22.00204 -6.92327638 17.52185877 -7 11.875 C-7.02900391 11.1634375 -7.05800781 10.451875 -7.08789062 9.71875 C-7.13072304 6.18672286 -6.960135 4.24426513 -4.8359375 1.3671875 C-2.6875 -0.125 -2.6875 -0.125 0 0 Z " fill="#007042" transform="translate(211.6875,9.125)"/>
<path d="M0 0 C1.98 0 3.96 0 6 0 C6 11.88 6 23.76 6 36 C4.35 36 2.7 36 1 36 C0.67 35.01 0.34 34.02 0 33 C-0.639375 33.66 -1.27875 34.32 -1.9375 35 C-6.05309791 37.68773741 -9.21124989 37.70525229 -14 37 C-17.44504283 35.65193976 -18.68260306 34.4487336 -20.8125 31.4375 C-22.60141955 26.25904868 -23.1150777 21.11649922 -21.23828125 15.87109375 C-19.36950051 12.33296738 -17.68532574 10.43505372 -14 9 C-11.81640625 8.69921875 -11.81640625 8.69921875 -9.5625 8.6875 C-8.45068359 8.66236328 -8.45068359 8.66236328 -7.31640625 8.63671875 C-5 9 -5 9 0 12 C0 8.04 0 4.08 0 0 Z M-14.375 15.5625 C-16.53538251 18.80307376 -16.93187446 21.11684403 -17 25 C-15.63571607 27.92346557 -14.27249091 29.72750909 -12 32 C-8.62751384 32.66758785 -8.62751384 32.66758785 -5 32 C-1.80568054 29.14550176 -0.25262185 27.21258487 0.625 23 C-0.25262185 18.78741513 -1.80568054 16.85449824 -5 14 C-8.993101 13.29945597 -10.97017246 13.32248188 -14.375 15.5625 Z " fill="#000000" transform="translate(123,1)"/>
<path d="M0 0 C1.98 0 3.96 0 6 0 C6.02505615 0.76666992 6.0501123 1.53333984 6.07592773 2.32324219 C6.19201423 5.79899283 6.31468366 9.27448092 6.4375 12.75 C6.47681641 13.9565625 6.51613281 15.163125 6.55664062 16.40625 C6.59853516 17.56640625 6.64042969 18.7265625 6.68359375 19.921875 C6.72025146 20.99018555 6.75690918 22.05849609 6.79467773 23.15917969 C6.96986909 25.58311152 7.31198487 27.67886712 8 30 C13.3897532 31.19552581 13.3897532 31.19552581 18.4375 29.75 C21.27630953 26.57053333 21.17142815 23.31837922 21.31640625 19.23828125 C21.35830078 18.12001953 21.40019531 17.00175781 21.44335938 15.84960938 C21.48267578 14.68236328 21.52199219 13.51511719 21.5625 12.3125 C21.60568359 11.13365234 21.64886719 9.95480469 21.69335938 8.74023438 C21.79951176 5.82694117 21.90156242 2.91356243 22 0 C23.98 0 25.96 0 28 0 C28.08738991 4.37487331 28.140524 8.74952078 28.1875 13.125 C28.21263672 14.3625 28.23777344 15.6 28.26367188 16.875 C28.27333984 18.07382812 28.28300781 19.27265625 28.29296875 20.5078125 C28.3086792 21.60754395 28.32438965 22.70727539 28.34057617 23.84033203 C27.8064082 28.79603227 26.07077149 32.00757764 22.4375 35.375 C17.8269472 37.55453405 14.01620485 37.80748663 9 37 C4.46080158 34.77166623 2.20729681 32.49990169 0 28 C-0.34057617 24.86206055 -0.34057617 24.86206055 -0.29296875 21.38671875 C-0.28330078 20.13955078 -0.27363281 18.89238281 -0.26367188 17.60742188 C-0.2259668 15.66706055 -0.2259668 15.66706055 -0.1875 13.6875 C-0.17396484 12.37458984 -0.16042969 11.06167969 -0.14648438 9.70898438 C-0.11117443 6.47223923 -0.0618528 3.23632895 0 0 Z " fill="#000000" transform="translate(0,1)"/>
<path d="M0 0 C4.24012061 1.92732755 5.644095 3.34750751 7.875 7.4375 C9 11 9 11 9 16 C2.07 16 -4.86 16 -12 16 C-11.34 17.98 -10.68 19.96 -10 22 C-5.62855218 23.01661577 -2.99531924 23.16888759 1 21 C1.33 20.34 1.66 19.68 2 19 C3.98 19 5.96 19 8 19 C6.82191948 22.3529984 5.80593388 24.7552529 3 27 C-1.95337361 28.65112454 -6.9639362 28.85967138 -11.8125 26.8125 C-17.76530387 21.8801768 -17.76530387 21.8801768 -18.3515625 17.18359375 C-18.50569696 11.47361263 -18.40493592 7.75860557 -15 3 C-10.61433472 -0.85406949 -5.54713348 -0.78228805 0 0 Z M-10.4375 6.8125 C-12.2906191 8.95882896 -12.2906191 8.95882896 -12 12 C-7.05 12 -2.1 12 3 12 C1.45957252 7.19695965 1.45957252 7.19695965 -1 5 C-5.00686356 4.55479294 -7.14702112 4.36573365 -10.4375 6.8125 Z " fill="#000000" transform="translate(63,10)"/>
<path d="M0 0 C3.79853672 1.7956719 5.52011124 3.29616315 7.875 6.75 C9.68608661 11.98202799 9.68608661 16.01797201 7.875 21.25 C5.52011124 24.70383685 3.79853672 26.2043281 0 28 C-5.04852445 28.80448032 -8.82579945 28.57642572 -13.4375 26.3125 C-16.79656012 23.28115306 -18.69355631 21.25860352 -19.31640625 16.66796875 C-19.58213652 10.95048191 -18.96847152 7.39749547 -15 3 C-10.62994645 -0.8559296 -5.54488203 -0.79085657 0 0 Z M-13 10 C-13.70862744 12.83450976 -13.70862744 15.16549024 -13 18 C-10.56226471 21.44150865 -9.14182881 22.762119 -5 23.625 C-0.85817119 22.762119 0.56226471 21.44150865 3 18 C3.70862744 15.16549024 3.70862744 12.83450976 3 10 C0.56226471 6.55849135 -0.85817119 5.237881 -5 4.375 C-9.14182881 5.237881 -10.56226471 6.55849135 -13 10 Z " fill="#000000" transform="translate(150,10)"/>
<path d="M0 0 C0.75925781 -0.04898437 1.51851562 -0.09796875 2.30078125 -0.1484375 C6.16876571 0.69986024 7.42324751 2.13751618 9.6875 5.375 C10.2918137 9.1662733 10.15913507 12.86091368 10 16.6875 C9.97744141 17.71423828 9.95488281 18.74097656 9.93164062 19.79882812 C9.87287575 22.3257179 9.79077849 24.84960255 9.6875 27.375 C7.7075 27.375 5.7275 27.375 3.6875 27.375 C3.3575 20.445 3.0275 13.515 2.6875 6.375 C-2.85624378 5.80726704 -2.85624378 5.80726704 -5.125 7.625 C-7.75365811 11.49881195 -7.57987258 16.07160556 -7.875 20.625 C-8.00068359 22.51992188 -8.00068359 22.51992188 -8.12890625 24.453125 C-8.18949219 25.41734375 -8.25007813 26.3815625 -8.3125 27.375 C-9.9625 27.375 -11.6125 27.375 -13.3125 27.375 C-13.3125 18.795 -13.3125 10.215 -13.3125 1.375 C-10.97916667 1.375 -8.64583333 1.375 -6.3125 1.375 C-4.04001762 0.23875881 -2.52947236 0.11053157 0 0 Z " fill="#000000" transform="translate(88.3125,9.625)"/>
<path d="M0 0 C1.98 0 3.96 0 6 0 C6 10.23 6 20.46 6 31 C7.98 31 9.96 31 12 31 C12 32.65 12 34.3 12 36 C10.37581255 36.08090971 8.75048255 36.13914995 7.125 36.1875 C6.22007813 36.22230469 5.31515625 36.25710937 4.3828125 36.29296875 C3.20332031 36.14794922 3.20332031 36.14794922 2 36 C-0.42869909 32.35695136 -0.25675675 29.69277661 -0.1953125 25.48828125 C-0.1924826 24.76005661 -0.18965271 24.03183197 -0.18673706 23.28153992 C-0.17555257 20.95835863 -0.15045166 18.63556453 -0.125 16.3125 C-0.11496794 14.7363337 -0.10584248 13.16016135 -0.09765625 11.58398438 C-0.07561896 7.72250733 -0.04110141 3.86131929 0 0 Z " fill="#000000" transform="translate(32,1)"/>
<path d="M0 0 C1.65 0.33 3.3 0.66 5 1 C4.67 2.65 4.34 4.3 4 6 C2.35 5.67 0.7 5.34 -1 5 C-0.67 3.35 -0.34 1.7 0 0 Z " fill="#000000" transform="translate(161,32)"/>
</svg>
